<svg width="70" height="70" viewBox="0 0 70 70" fill="none" xmlns="http://www.w3.org/2000/svg">
<rect x="1" y="1" width="68" height="68" rx="34" stroke="#232735" stroke-width="2"/>
<path d="M47.7272 31.0607C48.313 30.4749 48.313 29.5251 47.7272 28.9393C47.1415 28.3536 46.1917 28.3536 45.6059 28.9393L47.7272 31.0607ZM34.9999 41.6667L33.9393 42.7273C34.2206 43.0086 34.6021 43.1667 34.9999 43.1667C35.3977 43.1667 35.7793 43.0086 36.0606 42.7273L34.9999 41.6667ZM24.3939 28.9393C23.8081 28.3536 22.8584 28.3536 22.2726 28.9393C21.6868 29.5251 21.6868 30.4749 22.2726 31.0607L24.3939 28.9393ZM45.6059 28.9393L33.9393 40.606L36.0606 42.7273L47.7272 31.0607L45.6059 28.9393ZM36.0606 40.606L24.3939 28.9393L22.2726 31.0607L33.9393 42.7273L36.0606 40.606Z" fill="#232735"/>
</svg>
